<?xml version="1.0" encoding="utf-8"?>
<!-- Generator: Adobe Illustrator 16.0.0, SVG Export Plug-In . SVG Version: 6.00 Build 0)  -->
<!DOCTYPE svg PUBLIC "-//W3C//DTD SVG 1.1//EN" "http://www.w3.org/Graphics/SVG/1.1/DTD/svg11.dtd">
<svg version="1.1" id="Layer_1" xmlns="http://www.w3.org/2000/svg" xmlns:xlink="http://www.w3.org/1999/xlink" x="0px" y="0px"
	 width="20px" height="20px" viewBox="0 0 20 20" enable-background="new 0 0 20 20" xml:space="preserve">
<path fill="#73849D" d="M16.779,18.5c-0.559,0-0.953-0.288-1.24-0.907l-1.252-2.735H5.686l-1.25,2.74
	C4.144,18.222,3.753,18.5,3.17,18.5c-0.429,0-0.819-0.156-1.159-0.465C1.657,17.726,1.5,17.383,1.5,16.918
	c0-0.246,0.061-0.498,0.18-0.748L8.448,2.389C8.734,1.79,9.238,1.5,9.987,1.5c0.741,0,1.253,0.293,1.57,0.896l6.762,13.775
	c0.121,0.25,0.182,0.501,0.182,0.746c0,0.443-0.174,0.826-0.506,1.107C17.598,18.349,17.209,18.5,16.779,18.5z M6.837,12.277h6.331
	L9.986,5.39L6.837,12.277z"/>
</svg>
