<?xml version="1.0" encoding="utf-8"?>
<!-- Generator: Adobe Illustrator 16.0.0, SVG Export Plug-In . SVG Version: 6.00 Build 0)  -->
<!DOCTYPE svg PUBLIC "-//W3C//DTD SVG 1.1//EN" "http://www.w3.org/Graphics/SVG/1.1/DTD/svg11.dtd">
<svg version="1.1" id="Layer_1" xmlns="http://www.w3.org/2000/svg" xmlns:xlink="http://www.w3.org/1999/xlink" x="0px" y="0px"
	 width="20px" height="20px" viewBox="0 0 20 20" enable-background="new 0 0 20 20" xml:space="preserve">
<path id="Quora_3_" fill="#fff" d="M14.467,16.385c2.42-1.519,4.033-4.232,4.033-7.331c0-4.758-3.807-8.616-8.5-8.616
	c-4.694,0-8.5,3.858-8.5,8.616c0,4.759,3.805,8.617,8.5,8.617c0.69,0,1.361-0.086,2.004-0.244c0.807,1.468,2.035,2.507,4.645,2.011
	v-1.461C16.648,17.977,14.975,17.557,14.467,16.385z M14.406,10.193c0,1.439-0.457,2.745-1.201,3.709
	c-0.936-0.994-2.399-1.813-4.257-1.707v0.174v1.52c0,0,1.26,0.05,2.123,1.532c-0.323,0.095-0.66,0.146-1.006,0.146
	c-2.398,0-4.342-2.405-4.342-5.375c0-0.38,0-1.839,0-2.22c0-2.967,1.943-5.373,4.342-5.373c2.398,0,4.341,2.406,4.341,5.373
	C14.406,8.354,14.406,9.813,14.406,10.193z"/>
</svg>
